<svg width="445" height="507" fill="none" xmlns="http://www.w3.org/2000/svg"><path opacity=".5" d="M24.926 28.121 1.696 14.847l23.23-13.275 23.23 13.275M24.926 28.12 1.696 41.396l23.23 13.274m0-26.549 23.23 13.275M24.926 28.12l23.23-13.274m0 26.549L24.926 54.67m23.23-13.274 23.23-13.275m-23.23 13.275 23.23 13.274m-46.46 0L1.696 67.945l23.23 13.274m0-26.549 23.23 13.275m0-53.098 23.23 13.274m-23.23-13.274 23.23-13.275 23.23 13.275M71.387 28.12l23.23 13.275M71.387 28.12l23.23-13.274M71.387 54.67l-23.23 13.275m23.23-13.275 23.23-13.274M71.387 54.67l23.23 13.275m-46.46 0-23.23 13.274m23.23-13.274 23.23 13.274m-46.46 0L1.696 94.493l23.23 13.274m0-26.548 23.23 13.274m0 0-23.23 13.274m23.23-13.274 23.23-13.274m-23.23 13.274 23.23 13.274m-46.46 0-23.23 13.275 23.23 13.274m0-26.549 23.23 13.275m23.23-39.823 23.23-13.274m-23.23 13.274 23.23 13.274m-23.23 13.274-23.23 13.275m23.23-13.275 23.23-13.274m-23.23 13.274 23.23 13.275m-46.46 0-23.23 13.274m23.23-13.274 23.23 13.274m-46.46 0L1.696 147.59l23.23 13.275m0-26.549 23.23 13.274m0 0-23.23 13.275m23.23-13.275 23.23-13.274m-23.23 13.274 23.23 13.275m-46.46 0-23.23 13.274 23.23 13.275m0-26.549 23.23 13.274m23.23-39.823 23.23-13.274m-23.23 13.274 23.23 13.274m-23.23 13.275-23.23 13.274m23.23-13.274 23.23-13.275m-23.23 13.275 23.23 13.274m-46.46 0-23.23 13.275m23.23-13.275 23.23 13.275m-46.46 0-23.23 13.275 23.23 13.274m0-26.549 23.23 13.275m0 0-23.23 13.274m23.23-13.274 23.23-13.275m-23.23 13.275 23.23 13.274m-46.46 0-23.23 13.275 23.23 13.274m0-26.549 23.23 13.275m23.23-39.824 23.23-13.275m-23.23 13.275 23.23 13.275m-23.23 13.274-23.23 13.275m23.23-13.275 23.23-13.274m-23.23 13.274 23.23 13.275m-46.46 0-23.23 13.274m23.23-13.274 23.23 13.274m-46.46 0-23.23 13.274 23.23 13.275m0-26.549 23.23 13.274m0 0-23.23 13.275m23.23-13.275 23.23-13.274m-23.23 13.274 23.23 13.275m-46.46 0-23.23 13.274 23.23 13.275m0-26.549 23.23 13.274m23.23-39.823 23.23-13.274m-23.23 13.274 23.23 13.274m-23.23 13.275-23.23 13.274m23.23-13.274 23.23-13.275m-23.23 13.275 23.23 13.274m-46.46 0-23.23 13.275m23.23-13.275 23.23 13.274m-46.46.001-23.23 13.274 23.23 13.274m0-26.548 23.23 13.274m0 0-23.23 13.274m23.23-13.274 23.23-13.275m-23.23 13.275 23.23 13.274m-46.46 0-23.23 13.275 23.23 13.274m0-26.549 23.23 13.275m23.23-39.824 23.23-13.274m-23.23 13.274 23.23 13.275m-23.23 13.274-23.23 13.275m23.23-13.275 23.23-13.274m-23.23 13.274 23.23 13.275m-46.46 0-23.23 13.274m23.23-13.274 23.23 13.275m-46.46-.001-23.23 13.275 23.23 13.275m0-26.55 23.23 13.275m0 0-23.23 13.275m23.23-13.275 23.23-13.274m-23.23 13.274 23.23 13.275m-46.46 0-23.23 13.274 23.23 13.275m0-26.549 23.23 13.274m23.23-39.823 23.23-13.275m-23.23 13.275 23.23 13.274m-23.23 13.275-23.23 13.274m23.23-13.274 23.23-13.275m-23.23 13.275 23.23 13.274m-46.46 0-23.23 13.275m23.23-13.275 23.23 13.274m-46.46.001L1.696 413.08l23.23 13.274m0-26.548 23.23 13.274m0 0-23.23 13.274m23.23-13.274 23.23-13.275m-23.23 13.275 23.23 13.274m-46.46 0-23.23 13.274 23.23 13.275m0-26.549 23.23 13.274m23.23-39.823 23.23-13.274m-23.23 13.274 23.23 13.275m-23.23 13.274-23.23 13.274m23.23-13.274 23.23-13.274m-23.23 13.274 23.23 13.274m-46.46 0-23.23 13.275m23.23-13.275 23.23 13.275m-46.46 0-23.23 13.274 23.23 13.274m0-26.548 23.23 13.274m0 0-23.23 13.274m23.23-13.274 23.23-13.274m-23.23 13.274 23.23 13.274m-46.46 0-23.23 13.275L24.926 506l23.23-13.274m-23.23-13.275 23.23 13.275m23.23-39.823 23.23-13.275m-23.23 13.275 23.23 13.274m-23.23 13.274-23.23 13.275m23.23-13.275 23.23-13.274m-23.23 13.274 23.23 13.275m-46.46 0L71.386 506l23.23-13.274m0-451.33 23.231-13.275m-23.23 13.275 23.23 13.274m-23.23-39.823 23.23 13.274m-23.23-13.274 23.23-13.275 23.23 13.275m-23.23 13.274 23.23 13.275m-23.23-13.275 23.23-13.274m0 26.549-23.23 13.274m23.23-13.274 23.231-13.275m-23.231 13.275 23.231 13.274m-46.461 0-23.23 13.275m23.23-13.275 23.23 13.275m-46.46 0 23.23 13.274m23.23-66.372 23.231 13.274m-23.231-13.274 23.231-13.275 23.23 13.275m-23.23 13.274 23.23 13.275m-23.23-13.275 23.23-13.274m-23.23 39.823-23.231 13.275m23.231-13.275 23.23-13.274m-23.23 13.274 23.23 13.275m-46.461 0-23.23 13.274m23.23-13.274 23.231 13.274m-46.461 0-23.23 13.274m23.23-13.274 23.23 13.274m-46.46 0 23.23 13.274m23.23-13.274-23.23 13.274m23.23-13.274 23.231-13.274m-23.231 13.274 23.231 13.274m-46.461 0-23.23 13.275m23.23-13.275 23.23 13.275m-46.46 0 23.23 13.274m46.461-53.097 23.23-13.274m-23.23 13.274 23.23 13.274m-23.23 13.274-23.231 13.275m23.231-13.275 23.23-13.274m-23.23 13.274 23.23 13.275m-46.461 0-23.23 13.274m23.23-13.274 23.231 13.274m-46.461 0-23.23 13.274m23.23-13.274 23.23 13.274m-46.46 0 23.23 13.275m23.23-13.275-23.23 13.275m23.23-13.275 23.231-13.274m-23.231 13.274 23.231 13.275m-46.461 0-23.23 13.274m23.23-13.274 23.23 13.274m-46.46 0 23.23 13.275m46.461-53.098 23.23-13.274m-23.23 13.274 23.23 13.274m-23.23 13.275-23.231 13.274m23.231-13.274 23.23-13.275m-23.23 13.275 23.23 13.274m-46.461 0-23.23 13.275m23.23-13.275 23.231 13.275m-46.461 0-23.23 13.275m23.23-13.275 23.23 13.275m-46.46 0 23.23 13.274m23.23-13.274-23.23 13.274m23.23-13.274 23.231-13.275m-23.231 13.275 23.231 13.274m-46.461 0-23.23 13.275m23.23-13.275 23.23 13.275m-46.46 0 23.23 13.274m46.461-53.098 23.23-13.275m-23.23 13.275 23.23 13.275m-23.23 13.274-23.231 13.275m23.231-13.275 23.23-13.274m-23.23 13.274 23.23 13.275m-46.461 0-23.23 13.274m23.23-13.274 23.231 13.274m-46.461 0-23.23 13.274m23.23-13.274 23.23 13.274m-46.46 0 23.23 13.275m23.23-13.275-23.23 13.275m23.23-13.275 23.231-13.274m-23.231 13.274 23.231 13.275m-46.461 0-23.23 13.274m23.23-13.274 23.23 13.274m-46.46 0 23.23 13.275m46.461-53.098 23.23-13.274m-23.23 13.274 23.23 13.274m-23.23 13.275-23.231 13.274m23.231-13.274 23.23-13.275m-23.23 13.275 23.23 13.274m-46.461 0-23.23 13.275m23.23-13.275 23.231 13.274m-46.461.001-23.23 13.274m23.23-13.274 23.23 13.274m-46.46 0 23.23 13.274m23.23-13.274-23.23 13.274m23.23-13.274 23.231-13.275m-23.231 13.275 23.231 13.274m-46.461 0-23.23 13.275m23.23-13.275 23.23 13.275m-46.46 0 23.23 13.274m46.461-53.098 23.23-13.274m-23.23 13.274 23.23 13.275m-23.23 13.274-23.231 13.275m23.231-13.275 23.23-13.274m-23.23 13.274 23.23 13.275m-46.461 0-23.23 13.274m23.23-13.274 23.231 13.275m-46.461-.001-23.23 13.275m23.23-13.275 23.23 13.275m-46.46 0 23.23 13.275m23.23-13.275-23.23 13.275m23.23-13.275 23.231-13.274m-23.231 13.274 23.231 13.275m-46.461 0-23.23 13.274m23.23-13.274 23.23 13.274m-46.46 0 23.23 13.275m46.461-53.098 23.23-13.275m-23.23 13.275 23.23 13.274m-23.23 13.275-23.231 13.274m23.231-13.274 23.23-13.275m-23.23 13.275 23.23 13.274m-46.461 0-23.23 13.275m23.23-13.275 23.231 13.274m-46.461.001-23.23 13.274m23.23-13.274 23.23 13.274m-46.46 0 23.23 13.274m23.23-13.274-23.23 13.274m23.23-13.274 23.231-13.275m-23.231 13.275 23.231 13.274m-46.461 0-23.23 13.274m23.23-13.274 23.23 13.274m-46.46 0 23.23 13.275m46.461-53.098 23.23-13.274m-23.23 13.274 23.23 13.275m-23.23 13.274-23.231 13.274m23.231-13.274 23.23-13.274m-23.23 13.274 23.23 13.274m-46.461 0-23.23 13.275m23.23-13.275 23.231 13.275m-46.461 0-23.23 13.274m23.23-13.274 23.23 13.274m-46.46 0 23.23 13.274m23.23-13.274-23.23 13.274m23.23-13.274 23.231-13.274m-23.231 13.274 23.231 13.274m-46.461 0-23.23 13.275m23.23-13.275 23.23 13.275m-46.46 0L117.847 506l23.23-13.274m23.231-39.823 23.23-13.275m-23.23 13.275 23.23 13.274m-23.23 13.274-23.231 13.275m23.231-13.275 23.23-13.274m-23.23 13.274 23.23 13.275m-46.461 0L164.308 506l23.23-13.274m0-451.33 23.23-13.275m-23.23 13.275 23.23 13.274m-23.23-39.823 23.23 13.274m-23.23-13.274 23.23-13.275 23.23 13.275m-23.23 13.274 23.23 13.275m-23.23-13.275 23.23-13.274m0 26.549-23.23 13.274m23.23-13.274 23.231-13.275m-23.231 13.275 23.231 13.274m-46.461 0-23.23 13.275m23.23-13.275 23.23 13.275m-46.46 0 23.23 13.274m23.23-66.372 23.231 13.274m-23.231-13.274 23.231-13.275 23.23 13.275m-23.23 13.274 23.23 13.275m-23.23-13.275 23.23-13.274m-23.23 39.823-23.231 13.275m23.231-13.275 23.23-13.274m-23.23 13.274 23.23 13.275m-46.461 0-23.23 13.274m23.23-13.274 23.231 13.274m-46.461 0-23.23 13.274m23.23-13.274 23.23 13.274m-46.46 0 23.23 13.274m23.23-13.274-23.23 13.274m23.23-13.274 23.231-13.274m-23.231 13.274 23.231 13.274m-46.461 0-23.23 13.275m23.23-13.275 23.23 13.275m-46.46 0 23.23 13.274m46.461-53.097 23.23-13.274m-23.23 13.274 23.23 13.274m-23.23 13.274-23.231 13.275m23.231-13.275 23.23-13.274m-23.23 13.274 23.23 13.275m-46.461 0-23.23 13.274m23.23-13.274 23.231 13.274m-46.461 0-23.23 13.274m23.23-13.274 23.23 13.274m-46.46 0 23.23 13.275m23.23-13.275-23.23 13.275m23.23-13.275 23.231-13.274m-23.231 13.274 23.231 13.275m-46.461 0-23.23 13.274m23.23-13.274 23.23 13.274m-46.46 0 23.23 13.275m46.461-53.098 23.23-13.274m-23.23 13.274 23.23 13.274m-23.23 13.275-23.231 13.274m23.231-13.274 23.23-13.275m-23.23 13.275 23.23 13.274m-46.461 0-23.23 13.275m23.23-13.275 23.231 13.275m-46.461 0-23.23 13.275m23.23-13.275 23.23 13.275m-46.46 0 23.23 13.274m23.23-13.274-23.23 13.274m23.23-13.274 23.231-13.275m-23.231 13.275 23.231 13.274m-46.461 0-23.23 13.275m23.23-13.275 23.23 13.275m-46.46 0 23.23 13.274m46.461-53.098 23.23-13.275m-23.23 13.275 23.23 13.275m-23.23 13.274-23.231 13.275m23.231-13.275 23.23-13.274m-23.23 13.274 23.23 13.275m-46.461 0-23.23 13.274m23.23-13.274 23.231 13.274m-46.461 0-23.23 13.274m23.23-13.274 23.23 13.274m-46.46 0 23.23 13.275m23.23-13.275-23.23 13.275m23.23-13.275 23.231-13.274m-23.231 13.274 23.231 13.275m-46.461 0-23.23 13.274m23.23-13.274 23.23 13.274m-46.46 0 23.23 13.275m46.461-53.098 23.23-13.274m-23.23 13.274 23.23 13.274m-23.23 13.275-23.231 13.274m23.231-13.274 23.23-13.275m-23.23 13.275 23.23 13.274m-46.461 0-23.23 13.275m23.23-13.275 23.231 13.274m-46.461.001-23.23 13.274m23.23-13.274 23.23 13.274m-46.46 0 23.23 13.274m23.23-13.274-23.23 13.274m23.23-13.274 23.231-13.275m-23.231 13.275 23.231 13.274m-46.461 0-23.23 13.275m23.23-13.275 23.23 13.275m-46.46 0 23.23 13.274m46.461-53.098 23.23-13.274m-23.23 13.274 23.23 13.275m-23.23 13.274-23.231 13.275m23.231-13.275 23.23-13.274m-23.23 13.274 23.23 13.275m-46.461 0-23.23 13.274m23.23-13.274 23.231 13.275m-46.461-.001-23.23 13.275m23.23-13.275 23.23 13.275m-46.46 0 23.23 13.275m23.23-13.275-23.23 13.275m23.23-13.275 23.231-13.274m-23.231 13.274 23.231 13.275m-46.461 0-23.23 13.274m23.23-13.274 23.23 13.274m-46.46 0 23.23 13.275m46.461-53.098 23.23-13.275m-23.23 13.275 23.23 13.274m-23.23 13.275-23.231 13.274m23.231-13.274 23.23-13.275m-23.23 13.275 23.23 13.274m-46.461 0-23.23 13.275m23.23-13.275 23.231 13.274m-46.461.001-23.23 13.274m23.23-13.274 23.23 13.274m-46.46 0 23.23 13.274m23.23-13.274-23.23 13.274m23.23-13.274 23.231-13.275m-23.231 13.275 23.231 13.274m-46.461 0-23.23 13.274m23.23-13.274 23.23 13.274m-46.46 0 23.23 13.275m46.461-53.098 23.23-13.274m-23.23 13.274 23.23 13.275m-23.23 13.274-23.231 13.274m23.231-13.274 23.23-13.274m-23.23 13.274 23.23 13.274m-46.461 0-23.23 13.275m23.23-13.275 23.231 13.275m-46.461 0-23.23 13.274m23.23-13.274 23.23 13.274m-46.46 0 23.23 13.274m23.23-13.274-23.23 13.274m23.23-13.274 23.231-13.274m-23.231 13.274 23.231 13.274m-46.461 0-23.23 13.275m23.23-13.275 23.23 13.275m-46.46 0L210.768 506l23.23-13.274m23.231-39.823 23.23-13.275m-23.23 13.275 23.23 13.274m-23.23 13.274-23.231 13.275m23.231-13.275 23.23-13.274m-23.23 13.274 23.23 13.275m-46.461 0L257.229 506l23.23-13.274m0-451.33 23.23-13.275m-23.23 13.275 23.23 13.274m-23.23-39.823 23.23 13.274m-23.23-13.274 23.23-13.275 23.231 13.275M303.689 28.12l23.231 13.275M303.689 28.12l23.231-13.274m0 26.549L303.689 54.67m23.231-13.274 23.23-13.275m-23.23 13.275 23.23 13.274m-46.461 0-23.23 13.275m23.23-13.275 23.231 13.275m-46.461 0 23.23 13.274m23.231-66.372 23.23 13.274m-23.23-13.274 23.23-13.275 23.23 13.275M350.15 28.12l23.23 13.275M350.15 28.12l23.23-13.274M350.15 54.67l-23.23 13.275m23.23-13.275 23.23-13.274M350.15 54.67l23.23 13.275m-46.46 0-23.231 13.274m23.231-13.274 23.23 13.274m-46.461 0-23.23 13.274m23.23-13.274 23.231 13.274m-46.461 0 23.23 13.274m23.231-13.274-23.231 13.274m23.231-13.274 23.23-13.274m-23.23 13.274 23.23 13.274m-46.461 0-23.23 13.275m23.23-13.275 23.231 13.275m-46.461 0 23.23 13.274m46.461-53.097 23.23-13.274m-23.23 13.274 23.23 13.274m-23.23 13.274-23.23 13.275m23.23-13.275 23.23-13.274m-23.23 13.274 23.23 13.275m-46.46 0-23.231 13.274m23.231-13.274 23.23 13.274m-46.461 0-23.23 13.274m23.23-13.274 23.231 13.274m-46.461 0 23.23 13.275m23.231-13.275-23.231 13.275m23.231-13.275 23.23-13.274m-23.23 13.274 23.23 13.275m-46.461 0-23.23 13.274m23.23-13.274 23.231 13.274m-46.461 0 23.23 13.275m46.461-53.098 23.23-13.274m-23.23 13.274 23.23 13.274m-23.23 13.275-23.23 13.274m23.23-13.274 23.23-13.275m-23.23 13.275 23.23 13.274m-46.46 0-23.231 13.275m23.231-13.275 23.23 13.275m-46.461 0-23.23 13.275m23.23-13.275 23.231 13.275m-46.461 0 23.23 13.274m23.231-13.274-23.231 13.274m23.231-13.274 23.23-13.275m-23.23 13.275 23.23 13.274m-46.461 0-23.23 13.275m23.23-13.275 23.231 13.275m-46.461 0 23.23 13.274m46.461-53.098 23.23-13.275m-23.23 13.275 23.23 13.275m-23.23 13.274-23.23 13.275m23.23-13.275 23.23-13.274m-23.23 13.274 23.23 13.275m-46.46 0-23.231 13.274m23.231-13.274 23.23 13.274m-46.461 0-23.23 13.274m23.23-13.274 23.231 13.274m-46.461 0 23.23 13.275m23.231-13.275-23.231 13.275m23.231-13.275 23.23-13.274m-23.23 13.274 23.23 13.275m-46.461 0-23.23 13.274m23.23-13.274 23.231 13.274m-46.461 0 23.23 13.275m46.461-53.098 23.23-13.274m-23.23 13.274 23.23 13.274m-23.23 13.275-23.23 13.274m23.23-13.274 23.23-13.275m-23.23 13.275 23.23 13.274m-46.46 0-23.231 13.275m23.231-13.275 23.23 13.274m-46.461.001-23.23 13.274m23.23-13.274 23.231 13.274m-46.461 0 23.23 13.274m23.231-13.274-23.231 13.274m23.231-13.274 23.23-13.275m-23.23 13.275 23.23 13.274m-46.461 0-23.23 13.275m23.23-13.275 23.231 13.275m-46.461 0 23.23 13.274m46.461-53.098 23.23-13.274m-23.23 13.274 23.23 13.275m-23.23 13.274-23.23 13.275m23.23-13.275 23.23-13.274m-23.23 13.274 23.23 13.275m-46.46 0-23.231 13.274m23.231-13.274 23.23 13.275m-46.461-.001-23.23 13.275m23.23-13.275 23.231 13.275m-46.461 0 23.23 13.275m23.231-13.275-23.231 13.275m23.231-13.275 23.23-13.274m-23.23 13.274 23.23 13.275m-46.461 0-23.23 13.274m23.23-13.274 23.231 13.274m-46.461 0 23.23 13.275m46.461-53.098 23.23-13.275m-23.23 13.275 23.23 13.274m-23.23 13.275-23.23 13.274m23.23-13.274 23.23-13.275m-23.23 13.275 23.23 13.274m-46.46 0-23.231 13.275m23.231-13.275 23.23 13.274m-46.461.001-23.23 13.274m23.23-13.274 23.231 13.274m-46.461 0 23.23 13.274m23.231-13.274-23.231 13.274m23.231-13.274 23.23-13.275m-23.23 13.275 23.23 13.274m-46.461 0-23.23 13.274m23.23-13.274 23.231 13.274m-46.461 0 23.23 13.275m46.461-53.098 23.23-13.274m-23.23 13.274 23.23 13.275m-23.23 13.274-23.23 13.274m23.23-13.274 23.23-13.274m-23.23 13.274 23.23 13.274m-46.46 0-23.231 13.275m23.231-13.275 23.23 13.275m-46.461 0-23.23 13.274m23.23-13.274 23.231 13.274m-46.461 0 23.23 13.274m23.231-13.274-23.231 13.274m23.231-13.274 23.23-13.274m-23.23 13.274 23.23 13.274m-46.461 0-23.23 13.275m23.23-13.275 23.231 13.275m-46.461 0L303.689 506l23.231-13.274m23.23-39.823 23.23-13.275m-23.23 13.275 23.23 13.274m-23.23 13.274-23.23 13.275m23.23-13.275 23.23-13.274m-23.23 13.274 23.23 13.275m-46.46 0L350.15 506l23.23-13.274m0-451.33 23.23-13.275m-23.23 13.275 23.23 13.274m-23.23-39.823 23.23 13.274m-23.23-13.274 23.23-13.275 23.231 13.275M396.61 28.12l23.231 13.275M396.61 28.12l23.231-13.274m0 26.549L396.61 54.67m23.231-13.274 23.23-13.275-23.23-13.274m0 26.549 23.23 13.274-23.23 13.275M396.61 54.67l-23.23 13.275m23.23-13.275 23.231 13.275m-46.461 0 23.23 13.274m23.231-66.372 23.23-13.275m-23.23 66.373L396.61 81.219m23.231-13.274 23.23 13.274-23.23 13.274M396.61 81.219l-23.23 13.274m23.23-13.274 23.231 13.274m-46.461 0 23.23 13.274m23.231-13.274-23.231 13.274m23.231-13.274 23.23 13.274-23.23 13.275m-23.231-13.275-23.23 13.275m23.23-13.275 23.231 13.275m-46.461 0 23.23 13.274m23.231-13.274-23.231 13.274m23.231-13.274 23.23 13.274-23.23 13.274m-23.231-13.274-23.23 13.274m23.23-13.274 23.231 13.274m-46.461 0 23.23 13.275m23.231-13.275-23.231 13.275m23.231-13.275 23.23 13.275-23.23 13.274m-23.231-13.274-23.23 13.274m23.23-13.274 23.231 13.274m-46.461 0 23.23 13.275m23.231-13.275-23.231 13.275m23.231-13.275 23.23 13.275-23.23 13.275m-23.231-13.275-23.23 13.275m23.23-13.275 23.231 13.275m-46.461 0 23.23 13.274m23.231-13.274-23.231 13.274m23.231-13.274 23.23 13.274-23.23 13.275m-23.231-13.275-23.23 13.275m23.23-13.275 23.231 13.275m-46.461 0 23.23 13.274m23.231-13.274-23.231 13.274m23.231-13.274 23.23 13.274-23.23 13.274m-23.231-13.274-23.23 13.274m23.23-13.274 23.231 13.274m-46.461 0 23.23 13.275m23.231-13.275-23.231 13.275m23.231-13.275 23.23 13.275-23.23 13.274m-23.231-13.274-23.23 13.274m23.23-13.274 23.231 13.274m-46.461 0 23.23 13.275m23.231-13.275L396.61 293.61m23.231-13.275 23.23 13.274-23.23 13.275M396.61 293.61l-23.23 13.274m23.23-13.274 23.231 13.274m-46.461 0 23.23 13.274m23.231-13.274-23.231 13.274m23.231-13.274 23.23 13.274-23.23 13.275m-23.231-13.275-23.23 13.275m23.23-13.275 23.231 13.275m-46.461 0 23.23 13.274m23.231-13.274-23.231 13.274m23.231-13.274 23.23 13.275-23.23 13.274m-23.231-13.275-23.23 13.275m23.23-13.275 23.231 13.275m-46.461 0 23.23 13.275m23.231-13.275-23.231 13.275m23.231-13.275 23.23 13.275-23.23 13.274m-23.231-13.274-23.23 13.274m23.23-13.274 23.231 13.274m-46.461 0 23.23 13.275m23.231-13.275-23.231 13.275m23.231-13.275 23.23 13.274-23.23 13.275m-23.231-13.274-23.23 13.274m23.23-13.274 23.231 13.274m-46.461 0 23.23 13.274m23.231-13.274-23.231 13.274m23.231-13.274 23.23 13.274-23.23 13.274m-23.231-13.274-23.23 13.274m23.23-13.274 23.231 13.274m-46.461 0 23.23 13.275m23.231-13.275-23.231 13.275m23.231-13.275 23.23 13.275-23.23 13.274m-23.231-13.274-23.23 13.274m23.23-13.274 23.231 13.274m-46.461 0 23.23 13.274m23.231-13.274-23.231 13.274m23.231-13.274 23.23 13.274-23.23 13.275m-23.231-13.275-23.23 13.275m23.23-13.275 23.231 13.275m-46.461 0L396.61 506l23.231-13.274m0 0L443.071 506" stroke="url(#a)" stroke-width="1.659"/><defs><radialGradient id="a" cx="0" cy="0" r="1" gradientUnits="userSpaceOnUse" gradientTransform="matrix(-329.02748 182.11275 -198.65846 -358.921 226.608 273.223)"><stop stop-color="#B983E3" stop-opacity=".31"/><stop offset="1" stop-color="#A5A5A5" stop-opacity="0"/></radialGradient></defs></svg>