<svg width="15" height="16" fill="none" xmlns="http://www.w3.org/2000/svg"><path d="M13.805 6.771a1.41 1.41 0 0 1 0 2.458L2.1 15.817A1.41 1.41 0 0 1 0 14.588V1.412A1.41 1.41 0 0 1 2.101.183l11.704 6.588Z" fill="#FF715B"/><path d="M13.805 6.771a1.41 1.41 0 0 1 0 2.458L2.1 15.817A1.41 1.41 0 0 1 0 14.588V1.412A1.41 1.41 0 0 1 2.101.183l11.704 6.588Z" fill="url(#a)"/><defs><linearGradient id="a" x1="7.262" y1="0" x2="7.262" y2="16" gradientUnits="userSpaceOnUse"><stop stop-color="#8C2DD7"/><stop offset="1" stop-color="#A851FE"/></linearGradient></defs></svg>