<svg width="41" height="37" fill="none" xmlns="http://www.w3.org/2000/svg"><path d="M2 22.282a1.406 1.406 0 0 0 0 2.813v-2.813Zm37 2.813a1.406 1.406 0 0 0 0-2.813v2.813Zm-20.985-7.39 1.405.042v-.042h-1.405Zm0-9.083-1.407-.005v.005h1.407Zm.32-.18.753-1.187-.013-.008-.012-.008-.728 1.204Zm7.167 4.542-.753 1.188.01.006.008.005.735-1.199Zm.1.18h-1.406 1.407Zm-.1.179-.735-1.2-.008.006-.009.005.752 1.189Zm-7.167 4.534-.752-1.189-.03.02-.028.02.81 1.149ZM3.579 3.407H37.42V.593H3.58v2.812Zm33.842 0c.1 0 .173.079.173.167h2.812c0-1.65-1.34-2.98-2.985-2.98v2.812Zm.173.167V27.21h2.812V3.574h-2.812Zm0 23.636a.17.17 0 0 1-.173.167v2.813a2.982 2.982 0 0 0 2.985-2.98h-2.812Zm-.173.167H3.58v2.813h33.84v-2.813Zm-33.842 0a.17.17 0 0 1-.173-.167H.594c0 1.65 1.34 2.98 2.985 2.98v-2.813Zm-.173-.167V3.574H.594V27.21h2.812Zm0-23.636a.17.17 0 0 1 .173-.168V.594a2.982 2.982 0 0 0-2.985 2.98h2.812ZM2 25.094h37v-2.812H2v2.813Zm12.109 11.18a6.61 6.61 0 0 0 3.24-3.304l-2.57-1.142a3.798 3.798 0 0 1-1.862 1.898l1.192 2.548Zm3.24-3.304a6.587 6.587 0 0 0 .274-4.617l-2.687.83a3.77 3.77 0 0 1-.157 2.645l2.57 1.142Zm11.438.756a3.798 3.798 0 0 1-1.863-1.898l-2.57 1.142a6.61 6.61 0 0 0 3.24 3.304l1.193-2.548Zm-1.863-1.898a3.774 3.774 0 0 1-.156-2.645l-2.688-.83a6.587 6.587 0 0 0 .274 4.617l2.57-1.142ZM9.167 36.407h22.666v-2.812H9.167v2.812Zm10.254-18.7V8.621h-2.813v9.083h2.813Zm0-9.08c0 .213-.058.421-.166.604l-2.423-1.428a1.617 1.617 0 0 0-.224.815l2.813.01Zm-.166.604a1.196 1.196 0 0 1-.446.436l-1.373-2.454a1.62 1.62 0 0 0-.604.59l2.423 1.428Zm-.446.436a1.195 1.195 0 0 1-.604.152l.048-2.812a1.618 1.618 0 0 0-.817.206l1.373 2.454Zm-.604.152a1.195 1.195 0 0 1-.597-.172l1.454-2.407a1.618 1.618 0 0 0-.81-.233l-.047 2.812Zm-.623-.188 7.167 4.542 1.506-2.375-7.167-4.542-1.506 2.375Zm7.185 4.553a1.195 1.195 0 0 1-.418-.434l2.453-1.376a1.617 1.617 0 0 0-.565-.588l-1.47 2.398Zm-.418-.434c-.1-.179-.153-.38-.153-.585h2.813c0-.277-.071-.55-.207-.79l-2.453 1.375Zm-.153-.585a1.2 1.2 0 0 1 .153-.586l2.453 1.376c.136-.241.207-.513.207-.79h-2.813Zm.153-.586c.1-.178.244-.328.418-.434l1.47 2.398c.235-.144.43-.347.565-.588l-2.453-1.376Zm.401-.424-7.167 4.534 1.504 2.377 7.167-4.534-1.504-2.377Zm-7.225 4.573a1.21 1.21 0 0 1 .619-.217l.172 2.807a1.61 1.61 0 0 0 .83-.29l-1.621-2.3Zm.619-.217c.222-.014.444.035.64.14l-1.326 2.48c.264.14.56.205.858.187l-.172-2.807Zm.64.14c.198.105.362.263.474.457l-2.433 1.412c.15.259.37.47.633.61l1.327-2.48Zm.474.457c.113.194.169.416.162.64l-2.811-.084c-.009.3.066.596.216.855l2.433-1.41Z" fill="#9B53C8"/></svg>