<svg width="1536" height="3741" fill="none" xmlns="http://www.w3.org/2000/svg"><path d="M0 25.78c261-79.003 480.5 134.504 914.5 75.002C1210 39.28 1344.5-27.222 1536 12.28v3729.11H0V25.78Z" fill="url(#a)"/><path d="M0 25.78c261-79.003 480.5 134.504 914.5 75.002C1210 39.28 1344.5-27.222 1536 12.28v3729.11H0V25.78Z" fill="url(#b)"/><path d="M0 25.78c261-79.003 480.5 134.504 914.5 75.002C1210 39.28 1344.5-27.222 1536 12.28v3729.11H0V25.78Z" fill="url(#c)"/><defs><radialGradient id="b" cx="0" cy="0" r="1" gradientUnits="userSpaceOnUse" gradientTransform="matrix(0 -412.012 525.974 0 732.5 3891.89)"><stop stop-color="#4F218A"/><stop offset="1" stop-color="#452B14" stop-opacity="0"/></radialGradient><radialGradient id="c" cx="0" cy="0" r="1" gradientUnits="userSpaceOnUse" gradientTransform="matrix(-607.50015 -13.84976 17.68153 -775.57547 1688 2633.35)"><stop stop-color="#331277"/><stop offset="1" stop-color="#211445" stop-opacity="0"/></radialGradient><linearGradient id="a" x1="768" y1="136.98" x2="768" y2="3822.89" gradientUnits="userSpaceOnUse"><stop stop-color="#15161E"/><stop offset="1" stop-color="#0C0D11"/></linearGradient></defs></svg>