<svg width="24" height="24" fill="none" xmlns="http://www.w3.org/2000/svg"><path d="M.498 5.197a.977.977 0 0 0 0 1.704l8.112 4.566a.977.977 0 0 0 1.457-.851V1.483A.977.977 0 0 0 8.61.63L.498 5.197Z" fill="#4E5361"/><g filter="url(#a)"><path d="M4.431 5.197a.977.977 0 0 0 0 1.704l8.113 4.566A.977.977 0 0 0 14 10.616V1.483A.977.977 0 0 0 12.544.63L4.43 5.197Z" fill="#EFEFEF"/></g><defs><filter id="a" x="3.934" y=".504" width="15.573" height="15.81" filterUnits="userSpaceOnUse" color-interpolation-filters="sRGB"><feFlood flood-opacity="0" result="BackgroundImageFix"/><feColorMatrix in="SourceAlpha" values="0 0 0 0 0 0 0 0 0 0 0 0 0 0 0 0 0 0 127 0" result="hardAlpha"/><feOffset dx="3.933" dy="3.147"/><feGaussianBlur stdDeviation=".787"/><feColorMatrix values="0 0 0 0 0 0 0 0 0 0 0 0 0 0 0 0 0 0 0.25 0"/><feBlend in2="BackgroundImageFix" result="effect1_dropShadow_401_289"/><feBlend in="SourceGraphic" in2="effect1_dropShadow_401_289" result="shape"/></filter></defs></svg>