<svg xmlns="http://www.w3.org/2000/svg" width="42" height="37" fill="none"><path fill="#9B53C8" d="M13.635 16.844a.563.563 0 0 0-.797-.006l-2.048 2.017a.563.563 0 1 0 .79.803l2.048-2.017a.563.563 0 0 0 .007-.797Zm-3.201 3.154a.563.563 0 0 0-.797-.007l-.01.009a.563.563 0 1 0 .79.804l.01-.01a.563.563 0 0 0 .007-.796Z"/><path fill="#9B53C8" d="M28.839 2.065a.563.563 0 0 0-.744-.03l-14.48 11.77a.563.563 0 0 0 .205.98l3.584.997-6.305 6.208a.563.563 0 0 0 .244.944l3.983 1.108-8.417 11.125a.563.563 0 0 0 .822.762l14.674-12.968a.564.564 0 0 0-.223-.964l-3.64-1.013 6.521-6.57a.563.563 0 0 0-.253-.94l-3.137-.847 7.23-9.82a.563.563 0 0 0-.064-.742Zm-8.561 10.557a.563.563 0 0 0 .306.878l2.997.809-6.515 6.563a.563.563 0 0 0 .249.94l3.566.992-9.676 8.551 5.519-7.294a.563.563 0 0 0-.299-.883l-3.842-1.069 6.305-6.208a.563.563 0 0 0-.245-.944l-3.471-.966 10.205-8.295-5.1 6.926Zm16.899-4.806a.249.249 0 0 0-.313-.1l-7.565 3.287a.249.249 0 0 0-.03.441l1.408.851-3.423 1.893a.25.25 0 0 0-.008.43l1.563.946-4.907 3.735a.249.249 0 0 0 .26.422l7.79-3.774a.249.249 0 0 0 .02-.438l-1.43-.864 3.558-2.02a.249.249 0 0 0 .004-.431l-1.234-.734 4.246-3.32a.249.249 0 0 0 .06-.324Zm-4.9 3.476a.249.249 0 0 0 .025.41l1.18.701-3.555 2.019a.25.25 0 0 0-.005.43l1.4.846-5.137 2.49 3.217-2.45a.249.249 0 0 0-.022-.41l-1.508-.913 3.422-1.892a.25.25 0 0 0 .009-.431l-1.363-.825 5.33-2.317-2.995 2.342Zm-25.52-3.12a.14.14 0 0 0-.163.087l-1.623 4.317a.14.14 0 0 0 .166.183l.889-.233-.572 2.11a.14.14 0 0 0 .17.172l.988-.26-.41 3.424a.14.14 0 0 0 .27.06l1.516-4.597a.14.14 0 0 0-.167-.178l-.904.237.573-2.215a.14.14 0 0 0-.17-.17l-.776.211.32-2.998a.14.14 0 0 0-.107-.15Zm-.512 3.32a.14.14 0 0 0 .175.15l.74-.2-.572 2.212a.14.14 0 0 0 .17.17l.886-.233-1 3.031.269-2.244a.14.14 0 0 0-.174-.152l-.953.251.572-2.11a.14.14 0 0 0-.17-.172l-.862.227 1.145-3.043-.226 2.114Zm19.55 11.028a.563.563 0 0 0-.796-.048l-.01.01a.563.563 0 1 0 .747.843l.01-.01a.563.563 0 0 0 .049-.795Zm-1.223 1.082a.563.563 0 0 0-.796-.049l-2.154 1.904a.563.563 0 1 0 .746.844l2.155-1.904a.563.563 0 0 0 .049-.795Z"/></svg>