<svg width="24" height="24" fill="none" xmlns="http://www.w3.org/2000/svg"><mask id="a" fill="#fff"><path d="M1.376 8.393a.742.742 0 0 1-.464-.98 12 12 0 1 1 4.793 14.803.742.742 0 0 1-.199-1.066c.25-.351.735-.431 1.104-.209A10.44 10.44 0 1 0 2.392 7.915c-.168.397-.609.617-1.016.478Z"/></mask><path d="M1.376 8.393a.742.742 0 0 1-.464-.98 12 12 0 1 1 4.793 14.803.742.742 0 0 1-.199-1.066c.25-.351.735-.431 1.104-.209A10.44 10.44 0 1 0 2.392 7.915c-.168.397-.609.617-1.016.478Z" stroke="#4E5361" stroke-width="6" mask="url(#a)"/></svg>