<svg width="17" height="17" fill="none" xmlns="http://www.w3.org/2000/svg"><path d="M14.026 5.197a.977.977 0 0 1 0 1.704l-8.112 4.566a.977.977 0 0 1-1.457-.851V1.483A.977.977 0 0 1 5.914.63l8.112 4.566Z" fill="#EFEFEF"/><g filter="url(#a)"><path d="M10.092 5.197a.977.977 0 0 1 0 1.704L1.98 11.467a.977.977 0 0 1-1.457-.851V1.483A.977.977 0 0 1 1.98.63l8.112 4.566Z" fill="#EFEFEF"/></g><defs><filter id="a" x=".523" y=".504" width="15.573" height="15.81" filterUnits="userSpaceOnUse" color-interpolation-filters="sRGB"><feFlood flood-opacity="0" result="BackgroundImageFix"/><feColorMatrix in="SourceAlpha" values="0 0 0 0 0 0 0 0 0 0 0 0 0 0 0 0 0 0 127 0" result="hardAlpha"/><feOffset dx="3.933" dy="3.147"/><feGaussianBlur stdDeviation=".787"/><feColorMatrix values="0 0 0 0 0 0 0 0 0 0 0 0 0 0 0 0 0 0 0.25 0"/><feBlend in2="BackgroundImageFix" result="effect1_dropShadow_401_286"/><feBlend in="SourceGraphic" in2="effect1_dropShadow_401_286" result="shape"/></filter></defs></svg>