<svg width="18" height="15" fill="none" xmlns="http://www.w3.org/2000/svg"><path d="M9.005 12.76a.817.817 0 0 1-1.339.63L3.197 9.687H.817A.817.817 0 0 1 0 8.869V5.613c0-.452.366-.818.817-.818h2.38l4.47-3.703a.817.817 0 0 1 1.34.63L9.004 12.76Zm3.142-1.277a.817.817 0 0 1-.637-.237l-.11-.11a.817.817 0 0 1-.078-1.064 4.717 4.717 0 0 0 .935-2.83c0-1.105-.367-2.14-1.06-2.995a.817.817 0 0 1 .055-1.093l.11-.11a.819.819 0 0 1 1.211.06 6.465 6.465 0 0 1 1.471 4.138c0 1.422-.45 2.777-1.3 3.915a.818.818 0 0 1-.597.326Zm3.38 2.526a.818.818 0 0 1-1.204.051l-.107-.107c-.3-.3-.32-.78-.047-1.104a8.726 8.726 0 0 0 2.044-5.608c0-2.13-.777-4.18-2.189-5.774a.818.818 0 0 1 .033-1.119l.107-.107a.817.817 0 0 1 1.19.034A10.48 10.48 0 0 1 18 7.24c0 2.475-.878 4.878-2.474 6.768Z" fill="#EFEFEF"/></svg>